<?xml version="1.0" encoding="UTF-8"?>
<svg id="Layer_2" data-name="Layer 2" xmlns="http://www.w3.org/2000/svg" viewBox="0 0 129.19 126.55">
  <defs>
    <style>
      .cls-1 {
        fill: none;
      }

      .cls-1, .cls-2 {
        stroke: #231f20;
        stroke-miterlimit: 10;
      }

      .cls-3 {
        fill: #2E3192;
      }

      .cls-2 {
        fill: beige;
      }
    </style>
  </defs>
  <g id="Layer_1-2" data-name="Layer 1">
    <g>
      <g>
        <path class="cls-3" d="M91.65,54.17c58.62-19.72,40.74,68.88-5.64,27.98,46.39,40.9-39.28,69.73-27.05,9.1-12.23,60.63-80.03.84-21.41-18.88C-21.08,92.1-3.2,3.49,43.19,44.4-3.2,3.49,82.47-25.33,70.24,35.29c12.23-60.63,80.03-.84,21.41,18.88Z"/>
        <path class="cls-1" d="M91.65,54.17c58.62-19.72,40.74,68.88-5.64,27.98,46.39,40.9-39.28,69.73-27.05,9.1-12.23,60.63-80.03.84-21.41-18.88C-21.08,92.1-3.2,3.49,43.19,44.4-3.2,3.49,82.47-25.33,70.24,35.29c12.23-60.63,80.03-.84,21.41,18.88Z"/>
      </g>
      <circle class="cls-2" cx="64.6" cy="63.27" r="24.69"/>
    </g>
  </g>
</svg>