<?xml version="1.0" encoding="UTF-8"?>
<svg id="Layer_2" data-name="Layer 2" xmlns="http://www.w3.org/2000/svg" viewBox="0 0 292.45 68.09">
  <defs>
    <style>
      .cls-1 {
        fill: #2e3192;
      }
    </style>
  </defs>
  <g id="Layer_1-2" data-name="Layer 1">
    <g>
      <path class="cls-1" d="M30.31,11.62c.11.23.27.44.38.67.25.5,0,1.06.25,1.56.67,1.35.15,1.85.47,2.98.17.54.26,1.79.09,2.31-.14.4-.31.83-.23,1.27.06.4-.06.85-.21,1.21-.12.25-.16.56-.1.86.06.21-.84,2.96-1.01,3.09-.31.25-.06.65-.29.96-.44.56-.41,1.31-.81,1.84-.23.31-.48,1.44-.72,1.75-.56.71-.41,1.31-1.18,2.27-.27.33-.25.85-.54,1.13-.21.25-.21.63-.44.84-.42.4-.73,1.42-1.08,1.69-.08.04-1,1.36-1.08,1.5-.06.08-1.1,1.36-1.1,1.36-.19.1-.35.27-.46.42-.12.15-.12.35-.31.44-.12.06-.27.04-.38.1-.27.13-.4.44-.67.57-.27.13-1.1.02-1.31-.22-.21-.23-.31-.42-.65-.44-.38,0-.44-.31-.71-.46-.21-.14-.71-.37-.83-.6-.1-.19-.05-1.27.06-1.42.17-.23.12-.63.08-.9-.06-.4.04-.79.18-1.19.06-.17-.07-2.08-.15-2.23,0,0-.41.73-.54,1.13-.02.06-.14.4-.08.42l-.33,1.08c-.1.29-.44.46-.41.83.04.37-.56,1.19-.64,1.71-.06.37-.1.77-.33,1.08-.23.31-.16,1.33-.49,1.83-.27.42-.83,1.32-1.27,1.59-.29.19-.44.27-.62.59-.31.54-.66,1.09-1.23,1.38-.42.21-1.08-.23-1.52-.16-.31.06-.56-.06-.86-.1-.19,0-.27-.15-.35-.31l-.15-.31c-.1-.19-.21-.33-.54-.31-.13.02-1.29-.47-1.33-.54-.08-.15-.32-1.42-.23-1.62.15-.36-.02-.81.06-1.23s-.13-.65-.27-1.02c-.15-.4.08-.71.2-1.06.1-.29-.19-.67-.07-1.12.1-.48-.06-.88.18-1.38.23-.5-.02-.9.12-1.31.25-.75-.34-1.65-.07-2.46.1-.29.21-1.11.06-1.42-.17-.35-.02-.71.04-1.08.1-.48-.17-.73-.09-1.06.12-.44-.06-.88.02-1.31.16-.56-.09-2.31-.36-2.85-.11-.23-.54-.5-.71-.75-.13-.17-.56-.16-.75-.06-.62.31-.98,1.3-1.33,1.48-.58.29-.64,1.23-1.22,1.52-.35.17-.56.33-.6.73-.02.35-.37.33-.48.77-.08.42-.35.27-.39.67-.02.35-.14.4-.41.63-.1.1-.19.29-.27.33-.04.02-.23.02-.29,0-.06-.12.06-.37.16-.46.33-.31.14-.5.33-.79.19-.29.35-.36.46-.71.12-.35.14-.4.41-.63s.35-.65.37-1c0-.38.56-.52.64-.84.08-.33.16-.56.44-.75.25-.17.33-.79.64-.94.35-.17.7-1.02.75-1.38.04-.31.39-.38.56-.61.17-.23.25-.56.5-.73.13-.12.29-.19.44-.27.15-.08.29-.1.46-.04.35-.08.79-.15,1.1-.3.27-.13.35-.17.63.02.67.48,1.87-.01,2.34.95.06.12.06.21.02.33-.08.33,0,.48.06.79.06.4-.14.5-.21.83-.06.27-.07,2.67-.05,2.9-.02.35.13.75-.06,1.04-.17.23-.08.52,0,.77.1.29-.12.54-.06.85.06.4-.02.63-.12,1.02-.1.38.07.73-.06,1.13-.1.29.02.62-.12.92-.15.37-.12.63-.02,1.02.06.31.04.46-.06.75-.14.31-.2,1.73-.1,2.02.1.29-.08.62.04.85.34.69-.2,1.06.17,1.79l.15.31c.1.19.19.39.17.54-.06.56-.2,1.06.07,1.6.13.27.31.23.38.39.08.15.06.12.21.13.25.02.46.25.75.16s.62.08.85-.04c.15-.08.25-.17.4-.25.23-.11.46-.04.69-.15.19-.1.31-.35.37-.52.14-.31.48-.48.56-.71.25-.65.66-.9.72-1.27.08-.42.35-1.23.56-1.58.21-.35.14-.79.35-1.13s.45-1.13.5-1.5c.08-.62.48-1.15.56-1.77.06-.37.18-.81.41-1.11.42-.5-.13-1.33.12-1.79.19-.38-.06-.6.02-.92.04-.12-.01-1.67-.07-1.79-.13-.27.02-.54.04-.79s-.09-.87-.17-1.12c-.11-.33-.07-.73-.05-1.08.02-.35-.23-.65-.17-1.02s-.23-.75-.09-1.06c.12-.25-.11-.81-.32-1.23l-.27-.54c-.11-.23,0-.29-.02-.52-.04-.08-.12-.14-.15-.21-.04-.08-.02-.13,0-.19.02-.25.14-.69.02-.92-.13-.27,0-.67.23-.88.31-.25-.06-.6.23-.79.25-.17.33-.5.6-.63.58-.29.92-.36,1.48-.02.54.31.71-.5,1.52.06.06.02.1.1.12.14.1.19-.04.5-.04.69-.02.54.17,1.79-.03,2.27-.15.37,0,.77-.16,1.13-.31.83.21,1.58-.1,2.4-.15.36-.21.54-.08.9.11.33-.12.73-.04,1.08.1.29.11,1,.02,1.29-.18.71.34,1.37.05,1.85-.21.35-.17.52-.04.88.1.29-.08.62.02.9.08.35.19.67.09,1.06-.08.33.17.64.02.9-.14.21-.25.36-.12.63.15.31.42,1.71.34,2.04-.08.23-.06.46.06.69.06.12.15.21.21.33.17.35.23.75.4,1.1.06.12.11.23.23.27.61.66.84.64,1.61.25,1.08-.54,1.85-1.88,2.53-2.84.25-.36.37-.9.7-1.21.33-.31.35-.85.66-1.19.62-.69.58-1.63,1.08-2.36.19-.29.14-.69.37-1,.29-.38.14-1.08.45-1.52.14-.21.74-2.67.72-2.9-.09-.48.1-.67.29-1.06.15-.27,0-.96.02-1.31.06-.65.08-1.29-.01-1.96-.06-.5-.34-.98-.34-1.46-.02-.42-.08-.63-.27-1.02-.46-.92-.94-.16-1.29-.85-.15-.31-.63-.41-.71-.56-.11-.23-.06-.5-.15-.69-.31-.62-1-.18-1.23-.64-.02-.04-.06-.12-.04-.17-.02-.33-.13-.94.06-1.23.08-.13-.04-1.13-.11-1.29-.08-.15-.1-.29-.04-.46.15-.36.58-.48.73-.84.31-.15.56-.04.88-.06.37-.04.69.33.92.21.35-.17.62-.02.86.19.33.27.63.02.9.46.06.12.13.17.19.29.13.27.13.56.25.79Z"/>
      <path class="cls-1" d="M39.08,21.14c-.22.27-.31.39-.36.87-.09.49-.17.89-.44,1.13-.24.23-.31.39-.4.75-.07.3-.49.42-.71.78-.28.34-.32.72-.75.93s-.73.37-.95.64l-.45.5-.7.45c-.15.1-.48.32-.68.4-.08.03-.16.06-.19-.02-.02-.04.26-.51.47-.69.23-.23.54-.39.61-.46.21-.17.76-.66.88-1.07.14-.47.5-.74.67-1.13.15-.33.09-.73.2-1.04.09-.36.17-.52.18-.85.02-.06,0-.14-.02-.18-.06-.16-.25-.18-.52-.26-.21-.06-.52-.03-.8.08-.16.06-.35.18-.44.3-.28.34-.49.42-.78.85-.31.39-.43.81-.63,1.12-.15.33-.08.77-.32,1.09-.2.31-.07.67-.16,1.03-.07.3.03.68-.12,1.01-.09.36-.16.66-.11,1.15,0,.23.04.35.1.51.08.2.19.39.34.65.22.47.58.93.86,1.05.33.15.85.18,1.18.33.26.08,1.03-.07,1.55-.27.2-.08.35-.18.41-.25.18-.25,1.21-.56,1.42-.73.25-.19.23-.23.64-.61.42-.34.42-.58.67-.76.21-.17.33-.45.5-.74.2-.31.29-.43.39-.66.11-.18.21-.17.32-.35.02-.06.11-.09.15-.1.08-.03.19.02.22.1.03.08,0,.14-.04.25l-.43.67c-.12.28-.12.65-.29.8-.21.17-.31.39-.39.66-.05.11-.38.7-.6.96-.2.31-.42.48-.62.79-.15.33-.63.75-.88.84-.28.11-.92.49-1.21.69-.23.13-.49.42-.77.52-.12.05-.26.05-.35.04-.27.01-1.01.25-1.49.43l-.4.15c-.12.05-.23.13-.35.18-.2.08-.46.13-.86.15-.69-.01-1.22-.55-1.55-.56-.25-.04-.69-.47-.81-.79l-.31-1.4c-.07-.3.24-1.06.39-1.39.2-.31.3-.3.28-.71-.02-.41-.11-.88.22-1.23.32-.35.2-.81.34-1.05.19-.21.23-.73.46-.96.19-.21.23-.23.37-.47.16-.43.44-.54.4-.89-.03-.31.22-.64.37-.97.17-.39.39-1.16.59-1.47.23-.36.38-.7.52-.93.11-.18.41-.62.69-.72.32-.12.54-.39,1.02-.57.48-.18.88-.71,1.15-.85.32-.12.65-.11,1.2.14.39.17.5.59.86.92.09.1.2.29.26.45.11.28.13.59-.02.79Z"/>
      <path class="cls-1" d="M48.69,1.91c.09.29-.46.96-.34,1.33.13.41-.04.87-.55,1.26-.41.27-.4.58-.69.81-.32.28-.21.47-.55.67-.36.16-.62.6-.89.74-.26.17-.29.36-.66.62-.41.27-.39.35-.57.63-.11.22-.3.46-.55.54-.08.03-.21.07-.27,0-.05-.03-.07-.07-.08-.11-.05-.16.15-.37.36-.57.19-.24.06-.79.34-.92.26-.17.43-.5.53-.89s.24-.53.49-.88c.21-.34.23-1.25.16-1.63-.1-.33-.16-.36-.21-.52-.03-.08-.07-.2-.06-.34-.14-.45-.67-.42-1-.31-.4.17-.58.32-.74.37-.21.07-.35.02-.64-.29-.01-.04-.07-.07-.08-.11-.08-.25.22-.43.44-.59.3-.19.39-.76.64-.97.23-.26.47-.38.82-.53.2-.07.27-.13.4-.17.12-.04.26-.04.49-.02.48.07.46.17.88.08.42-.09.96.32,1.42.63.39.24.66.38.71.54l.21.66Z"/>
      <path class="cls-1" d="M61.9,13.79c-.02.09,0,.14.01.22.03.12.11.24.15.41.04.17.04.34-.1.65-.19.31-.34.58-.45.83-.22.37-.4.68-.46.96-.11.43-.32.66-.53.71-.04.01-.14,0-.18,0-.08.02-.09-.02-.12-.1-.03-.12.03-.41-.05-.7-.02-.08-.07-.11-.1-.2-.11-.42.09-.87.02-1.12-.02-.08-.07-.11-.13-.15-.42-.25-.84-.32-1.46-.16-.58.15-.92.41-1.28.91l-.61.91c-.19.31-.34.58-.44.87-.1.29-.27.51-.43.73-.17.22-.42.42-.7.71-.53.54-.78,1.09-1.07,1.52-.3.39-.39.55-.47,1.45-.06.46-.01.98.02,1.46.01.4-.02.8-.15,1.15-.34.75.24.92-.26,1.58-.5.66-.87.76-1.37.89-.5.13-.39-.3-.89-.17-.21.05-.41.15-.53.18-.17.04-.31,0-.44-.33-.16-.62,0-.89-.09-1.22-.1-.37-.05-1.05.25-1.26.26-.2-.06-.39.22-.86.34-.58.84-.88.76-1.53-.12-.64.2-.76.41-1.35.25-.6-.08-.65.17-1.42.28-.83.46-1.14.45-1.71,0-.35.03-.58-.04-.83-.04-.17-.18-.18-.3-.14-.32.13-.46.29-.79.38-.42.11-.54.32-.74.41-.16.08-.26.2-.34.22-.04.01-.08.02-.1-.06-.01-.04.13-.7.41-.82.24-.11.63-.47.87-.58.55-.27,1.14-.92,1.26-1.12.3-.56.57-.9,1.15-1.05.54-.14.73-.45,1.31-.6.33-.09.46.06.52.31.04.17.06.39.03.62-.04.54.25.78.03,1.32-.27.51-.03,1.43-.41,2.02-.23.33-.4.68-.37.81.01.04.06.07.19.04.63-.3.78-.78,1.13-1.31l1.29-1.89c.3-.57.37-1.16.79-1.4.47-.25.23-.99.6-1.13l.17-.04c.17-.04.43-.07.65-.08.26-.02.52-.05.77-.11l.25-.06c.38-.1.47-.08.89.17.21.12.38.26.46.41.07.11.1.2.13.32.03.12.06.25.04.34Z"/>
      <path class="cls-1" d="M71.06,12.97c-.26.23-.37.33-.5.8-.17.47-.32.85-.63,1.04-.27.18-.37.33-.53.67-.12.29-.55.33-.84.64-.34.28-.44.66-.9.79s-.79.24-1.05.47l-.53.41-.77.32c-.16.08-.52.23-.73.27-.08.02-.17.03-.19-.05,0-.04.35-.46.59-.6.27-.18.6-.29.68-.35.24-.13.86-.52,1.05-.9.22-.44.62-.65.86-1,.2-.3.21-.7.38-.99.15-.34.26-.49.33-.81.03-.05.02-.13,0-.18-.03-.17-.22-.22-.46-.35-.19-.09-.5-.12-.8-.06-.17.03-.37.12-.48.23-.34.28-.55.33-.92.7-.37.33-.56.72-.81.99-.2.3-.21.74-.5,1.02-.25.27-.18.65-.33.98-.12.29-.09.67-.29.98-.15.34-.27.62-.31,1.11-.04.23-.02.35.01.52.04.21.12.41.22.7.14.5.42,1.01.67,1.18.3.2.81.32,1.11.53.24.13,1.03.11,1.58,0,.21-.04.37-.12.45-.17.22-.22,1.29-.34,1.53-.47.28-.14.27-.18.74-.49.47-.27.52-.49.8-.64.24-.13.41-.39.62-.65.25-.27.36-.38.5-.58.14-.16.24-.13.38-.29.03-.05.12-.07.16-.07.08-.02.19.05.2.14.02.08-.02.13-.09.24l-.54.59c-.17.25-.23.61-.43.74-.24.13-.37.34-.5.58-.07.1-.49.62-.76.85-.25.27-.49.4-.75.67-.2.3-.75.63-1.01.68-.3.06-.99.32-1.31.47-.25.09-.55.33-.85.38-.13.02-.26,0-.35-.02-.27-.04-1.04.07-1.54.17l-.42.08c-.13.02-.25.09-.37.12-.21.04-.47.05-.88,0-.68-.13-1.11-.75-1.43-.82-.24-.09-.6-.58-.66-.92l-.06-1.43c-.02-.3.42-1,.62-1.3.25-.27.35-.24.4-.65.05-.4.05-.88.43-1.18.38-.29.33-.77.51-.98.23-.18.35-.68.62-.86.23-.18.27-.18.45-.39.23-.4.53-.45.54-.81.03-.31.32-.59.53-.89.24-.35.58-1.08.83-1.34.29-.32.49-.62.67-.83.14-.16.51-.54.8-.59.34-.07.6-.29,1.11-.39.51-.1.99-.54,1.28-.64.34-.07.66,0,1.16.34.35.24.39.67.69,1.05.07.12.15.32.18.49.06.3.03.61-.16.77Z"/>
      <path class="cls-1" d="M96.82,9.35c-.05.52-1.07,1.45-1.05,1.75.02.26-.1.48-.26.71-.24.32-.41.33-.42.76-.02.3-.18.53-.29.84-.15.4-.16.92-.52,1.2-.33.28-.3.67-.54.94-.16.18-.48.51-.51.77-.14,1.13-.56.68-.64,1.38-.03.26-.32.45-.38.76-.1.4-.4.54-.5.85-.11.31-.4.5-.51.81-.15.35-.26.71-.45,1.02-.2.27-.32.41-.38.76-.13.7-.78.61-.84,1.65-.03.26-.48.63-.63.86-.12.14-.82,1.35-.85,1.48-.03.22-1.43,1.82-1.42,1.95-.02.3-.11.35-.35.54-.25.19-.27.53-.43.63-.58.38-.62,1.03-1,1.23-.33.15-.31.58-.64.69-.34.11-.3.62-.64.77-.42.2-.62,1.03-1.04,1.19-.34.11-.31.49-.6.69-.33.19-.48.59-.81.74-.29.11-.5.29-.7.52-.2.23-.28.36-.58.43-.38.07-.86.75-1.16.77-.26.02-.5.25-.71.39-.91.58-1.18.38-1.85.72-.08.05-.13.05-.21.06-.17.01-.39-.1-.57-.09-.39.02-.75.35-1.14.38-.17.01-.18-.16-.35-.15-.17.01-.29.11-.47.12-.04,0-.13,0-.17-.03-.35-.11-.74-.08-1.01-.32-.18-.12-.37-.32-.58-.31-.43.03-1.07-.53-1.18-.96l-.2-1.06s-.05-.17-.06-.21c-.01-.21.11-.35.22-.53.08-.09.07-.22.06-.35v-.17c-.02-.13-.03-.21.09-.35.16-.23.21-.75.37-.93.24-.27.48-.55.54-.9.06-.35.43-.72.77-.83.29-.11.17-.66.38-.76.17-.1.24-.27.4-.41.41-.29.9-.71,1.36-.91.33-.15.77-.09,1.11-.2.25-.1.67-.3.93-.32.09,0,.21-.01.22.11,0,.04-.08.13-.12.18-.12.09-.26.02-.59.25-.24.23-.67.35-.86.62s-.27.53-.51.77c-.24.23-.35.58-.59.81-.12.09-.11.22-.11.31v.17s.02.13-.02.17c-.12.14-.11.31-.1.44v.21c.03.3-.17.44-.16.61.01.21.41.36.43.62,0,.04-.02.3-.02.43,0,.13.74.73,1,.75.61.09,1.19.4,1.79.36.3-.02,1.57-.36,1.82-.51.58-.34,1.51-.7,1.9-1.2.2-.23.67-.3.87-.57.24-.32.31-.45.69-.69.41-.29.39-.59.64-.73s.36-.41.57-.55c.66-.47.62-1.07,1.08-1.23.25-.06.19-.36.44-.5.29-.15.43-.72.67-.95.28-.28.92-1.14,1.07-1.49.07-.18.44-.46.6-.64.16-.18.19-.44.34-.67l.4-.54c.16-.23.32-1.01.53-1.15.25-.19.83-1.13.9-1.44.07-.31.49-.46.56-.73.07-.26.27-.45.38-.71.27-.49.4-1.15.72-1.56.16-.18.1-.48.26-.66.12-.18.31-.49.34-.71,0-.13.02-.35.01-.47,0-.04-.1-.17-.14-.21-.13,0-.24.32-.41.37-.13.05-.17.05-.21.1l-.11.22c-.15.35-.32.41-.6.64-.21.14-.33.28-.54.38-.17.1-.03.26-.32.32-.25.06-.97.97-1.3,1.21-.17.1-.33.19-.5.21-.09,0-.17.01-.22-.03-.17-.03-.35-.15-.53-.14-.26.02-.55.21-.85.23l-.9.06c-.17.01-.23-.2-.49-.18-.3.02-.31-.11-.32-.28-.01-.17-.03-.39-.29-.46-.18-.07-.11-.34-.37-.41-.39-.1-.49-.27-.52-.66-.04-.6.38-.8.52-1.28.11-.31.14-.48.38-.71.2-.19.66-1.16.9-1.44.16-.14,1.24-1.42,1.24-1.42.21-.1.37-.33.48-.51.16-.23.31-.49.52-.64.29-.19.49-.42.69-.69.36-.45,1.05-1.79,1.6-1.96.34-.07.5-.25.74-.48.24-.23,1.5-.79,1.93-.82.04,0,.43.01.6,0,.13,0,.26-.02.38-.07.3-.02.79.25,1.14.23.77-.05.88-1.01,1.4-1.04.86-.06,1.26.18,1.7.88.02.34-.31.58-.33.93ZM93.04,10.81l-.3.02c-.21.01-.34.02-.36-.23-.02-.26-.36-.28-.54-.4-.23-.16-.44-.14-.7-.13-.3.02-.75.35-1.05.46-.33.15-.57.51-.86.7-.29.19-.43.72-.68.82-.42.2-.52,1.2-.97,1.57-.2.19-.26.58-.52.68-.13.05-.55.85-.54.98.02.3-.09.57-.25.79-.08.09-.08.13-.07.22.01.17.06.3.07.47.01.17-.07.31-.06.48.04.64.97,1.06,1.53,1.02.34-.02,1.34-.56,1.54-.83s.67-.26.83-.44c.24-.27.53-.42.73-.69.32-.41.9-.66,1.05-1.02.07-.22.28-.32.4-.54.11-.22.14-.53.3-.71.16-.23.18-.49.21-.75.03-.26.73-2.03.71-2.24-.01-.21-.27-.24-.49-.23Z"/>
      <path class="cls-1" d="M107.31,10.49c-.3.17-.43.26-.64.69-.26.43-.47.77-.82.9-.3.13-.43.26-.64.56-.17.26-.6.22-.95.47-.39.21-.56.56-1.03.6-.47.04-.82.09-1.12.26l-.6.3-.82.17c-.17.04-.56.13-.77.13-.09,0-.17,0-.17-.09,0-.04.43-.39.69-.47.3-.13.65-.17.73-.22.26-.09.95-.34,1.2-.69.3-.39.73-.52,1.03-.82.26-.26.34-.65.56-.9.21-.3.34-.43.47-.73.04-.04.04-.13.04-.17,0-.17-.17-.26-.39-.43-.17-.13-.47-.21-.77-.21-.17,0-.39.04-.52.13-.39.22-.6.22-1.03.52-.43.26-.69.6-.99.82-.26.26-.34.69-.69.9-.3.21-.3.6-.52.9-.17.26-.21.65-.47.9-.21.3-.39.56-.52,1.03-.09.21-.09.34-.09.52,0,.21.04.43.09.73.04.52.22,1.07.43,1.29.26.26.73.47.99.73.22.17.99.3,1.55.3.21,0,.39-.04.47-.09.26-.17,1.33-.09,1.59-.17.3-.09.3-.13.82-.34.52-.17.6-.39.9-.47.26-.09.47-.3.73-.52.3-.21.43-.3.6-.47.17-.13.26-.09.43-.22.04-.04.13-.04.17-.04.09,0,.17.09.17.17s-.04.13-.13.22l-.65.47c-.21.21-.34.56-.56.65-.26.09-.43.26-.6.47-.09.09-.6.52-.9.69-.3.22-.56.3-.86.52-.26.26-.86.47-1.12.47-.3,0-1.03.13-1.38.22-.26.04-.6.22-.9.22-.13,0-.26-.04-.34-.09-.26-.09-1.03-.13-1.55-.13h-.43c-.13,0-.26.04-.39.04-.21,0-.47-.04-.86-.17-.65-.26-.95-.95-1.25-1.07-.21-.13-.47-.69-.47-1.03l.21-1.42c.04-.3.6-.9.86-1.16.3-.22.39-.17.52-.56.13-.39.21-.86.64-1.08.43-.22.47-.69.69-.86.26-.13.47-.6.77-.73.26-.13.3-.13.52-.3.3-.34.6-.34.69-.69.09-.3.43-.52.69-.77.3-.3.77-.95,1.07-1.16.34-.26.6-.52.82-.69.17-.13.6-.43.9-.43.34,0,.65-.17,1.16-.17s1.07-.34,1.38-.39c.34,0,.65.13,1.08.56.3.3.26.73.47,1.16.04.13.09.34.09.52,0,.3-.09.6-.3.73Z"/>
      <path class="cls-1" d="M121.77,9.97c-.22.07-.87.08-1.17.06l-1.2-.07c-.47-.03-.69,0-.95-.02-.26-.02-.89-.18-1.11-.24h-.21c-.21-.03-.56,0-.74.03-.26.03-.81-.09-.83.12-.06.25-.36.28-.42.53-.01.21-.34.63-.48.83-.18.16-.34.58-.52.79s-.23.29-.39.71c-.2.38-.34.67-.48.83-.18.12-.3.63-.43.71-.18.08-.38.62-.56.74-.14.16-.16.55-.27.8-.06.21-.38.54-.55.61-.05.04-.05.13-.06.21-.01.17.02.43.05.56-.01.21.32.41.52.59.24.23.52.59.91.62.34.02.86.1,1.06.24.04.05.08.05.13.05.26.02.75-.26.88-.25.3-.02.4-.15.71-.34.22-.12.5-.44.72-.47.26-.03.41-.32.63-.44.18-.08.27-.2.36-.19t.08.09c.04.09.08.13.07.22s-.1.17-.23.29c-.23.2-.28.33-.5.44-.18.12-.58.27-.72.47-.28.33-.5.49-.86.72-.18.12-.72.47-.93.46-.17.03-.36.19-.62.31-.26.07-.83.21-1.13.23s-.65,0-.91.07c-.31.11-1.21.14-1.69.11-.47-.03-.83-.48-1-.62-.16-.18-.1-.44-.44-.63-.33-.24-.35-.67-.51-.85-.16-.14-.37-.32-.35-.58.01-.17.29-.54.31-.8-.03-.17-.03-.26-.02-.39.02-.3.13-.68.48-.79.31-.07.34-.63.6-.7s.68-.6.86-.72c.23-.16.2-.38.42-.58.27-.16.44-.79.66-.91.18-.08.68-.52.82-.73s.26-.67.39-.79c.18-.16.44-.79.58-.96.1-.17.28-.37.29-.54,0-.04,0-.09-.04-.13-.16-.14-.25-.15-.51-.16-.13,0-.3-.06-.47-.07-.09,0-.21-.01-.3.02-.26.03-.69.09-1,.07-.13,0-.21-.01-.25-.06-.12-.09-.47-.12-.81-.14-.34-.02-.61.05-.82.04-.26-.02-.43-.07-.55-.21-.08-.13-.12-.22-.11-.31,0-.13.1-.21.23-.29.09-.04.22-.07.35-.06l.56.03c.09-.08.22-.07.39-.06.13,0,.3.02.43.07.04,0,.13.05.17.05.17.01.39-.06.61-.05.43.07.94.1,1.2.12.21.01.6.12.72.13.17.01.65-.09.87-.12.26-.07.5-.4.55-.61.02-.26.14-.81.28-1.1.19-.25.42-.58.48-.83.1-.21.29-.59.43-.75.19-.2.39-.75.49-.92.14-.21.22-.76.36-.88.18-.16.21-.55.43-.62.18-.08.61-.13.83-.12.21.01.34.06.47.07.04,0,.13,0,.17-.03.22-.07.57-.22.79-.21.04,0,.37.37.57.55.16.18.26.62.25.92-.1.29-.39.79-.62.95-.18.12-.29.5-.39.71-.1.21-.43.62-.69.69-.22.12-.56.74-.74.9-.14.21-.41.36-.6.61-.14.16-.51.53-.52.74-.01.21.37.28.67.3l.94.06c.26.02.52.03.68.08h.17c.26.03.61-.04.86-.02l1.76.11c.21.01.39.02.51.16.08.09.12.18.11.27,0,.09-.05.17-.19.25Z"/>
      <path class="cls-1" d="M136.43,20.78c-.33.17-.51.49-.79.62-.38.21-1.58.72-1.97.71-.48.02-.88.04-1.33.15-.49.1-1,.03-1.5.13-.09.03-.26,0-.39-.01-.3-.04-.59-.13-.8-.16-.26-.04-.53.05-.78.02-.72-.11-1.19-1.35-1.1-1.99.01-.08.02-.17.08-.25.79-1.53.9-.82,1.82-1.73.21-.23.37-.42.5-.71.31-.61,1.23-.95,1.77-1.69.49-.67.85-1.35,1.38-2.01.27-.35.09-.6.48-.93.1-.07.26-.27.28-.39.08-.51-.65-.62-.99-.67-.21-.03-.37-.14-.58-.17-.17-.02-.31.04-.48.02l-2.55-.38c-.43-.06-.83-.3-1.25-.36-.21-.03-1.5-.13-1.57.03-.08.25-.38.25-.46.5s-.35.6-.55.79l-.59.74c-.26.27-1.3,2.03-1.49,2.13-.24.14-.38.51-.62.69-.15.11-.26.61-.33.78-.14.37-.63.47-.68.77-.03.21-.01.39,0,.57,0,.3.99,1.28,1.33,1.33.3.04.8.16,1.04.33.04.05.08.06.12.06.3.04.59-.17.9-.17.57,0,1.1-.66,1.49-.69.27-.05.82-.57,1.04-.54.08.01.13.28.13.32-.06.38-1.29.81-1.55,1.08-.76.76-2.6,1.4-3.69,1.41-.3,0-.6-.04-.91,0-.4.07-1.27.03-1.69-.03-.85-.13-.93-1.05-1.32-1.37-.31-.26-.29-.69-.43-.89-.15-.2-.34-.35-.3-.61.03-.21.34-.52.37-.73,0-.04,0-.3.02-.43.05-.34.19-.67.54-.75.32-.08.34-.56.66-.64.81-.19,1.94-1.93,2.13-2.03.23-.1.72-.46.88-.65.16-.19.26-.61.46-.76.25-.22.44-.63.65-.9.1-.11.31-.35.34-.52.04-.3-.76-.42-.98-.45-.43-.06-.88.04-1.3-.02-.26-.04-.62-.22-1.04-.28-.26-.04-.57,0-.82-.03-.3-.04-.67-.19-.61-.57.05-.34.52-.31.86-.26l.3.04c.1-.07.27-.05.4-.03.21.03.41.15.58.17.21.03.4-.03.61,0,.38.06.8.16,1.19.22.26.04.46.15.71.19.25.04.65,0,.88-.04.23-.05.53-.36.6-.56.09-.33.16-.76.38-1.07.21-.27.42-.46.55-.79.12-.2.34-.56.5-.71.26-.27.35-.6.56-.87.17-.24.28-.7.43-.85.2-.15.25-.53.48-.58.27-.09.49-.06.7-.03l.6.09s.13.02.18-.02c.23-.05.55-.18.8-.14.44.54.8.77.69,1.54-.03.21-.51.79-.7.9-.24.14-.33.47-.45.67-.17.28-.43.55-.74.63-.04,0-2.02,1.92-2.05,2.09-.03.21.52.34.98.41l.6.09c.3.04.55.12.84.17.26.04.52-.01.74.02.25.04.42.1.55.12.3.04,1.62.24,1.88.19.63-.12,1.2-.17,1.84-.08.6.09.5-.14.92-.34.19-.1,1.31-.02,1.56.01.47.07.88.83.81,1.29-.02.13.05.27.03.4,0,.04-.16.19-.17.24-.4.33-.71.72-1.15,1s-.73.81-1.17,1.13c-.78.58-1.23.95-1.89,1.63s-1.58,2.77-2.08,3.17c-.2.15-.35.34-.39.59-.02.17.05.23.22.29.38.1.44.59.85.73.21.07.5.12.72.15.34.05,1.26.01,1.62-.11.69-.25,2.38-1.43,2.94-1.35.08.01.07.1.07.14-.04.3-1.02.76-1.31.89ZM144.08,3.69c-.28.39-.42.2-.8.4-.37.16-.75.37-1.08.58-.19.1-2.65,1.17-2.65,1.17-.13-.02-.24-.17-.22-.29.02-.17.37-.47.48-.62.21-.23.42-.46.54-.75.19-.41.22-.58.57-.92.1-.07.16-.19.18-.32l.03-.21c.06-.38.51-.23.57-.65l.03-.21c.01-.08.03-.21.13-.29.26-.27.57-.31.91-.26.47.07.97.23,1.42.43.21.07.36.23.61.31.16.07.22.29.19.46-.08.55-.63.73-.91,1.17Z"/>
      <path class="cls-1" d="M152.13,23.88c-.29.11-.47.29-.71.4-.46.25-.94.44-1.39.64-.55.27-.97.92-1.6.99-.23.03-.47.11-.68.24-.21.13-.46.07-.71,0l-.25-.06c-.25-.06-.55.09-.76.04-.33-.08-.54-.35-.8-.54-.22-.19-.44-.19-.55-.48-.11-.29-.1-.51-.35-.75-.21-.23-.13-.96-.06-1.25.06-.25.17-.53.44-.56.36-.05.64-.29.95-.48.62-.38,1.41-1.65,1.81-1.87.3-.15.26-.73.6-.83.67-.2.68-.99,1.26-1.38.21-.13.82-.87.87-1.07.08-.33-.52-1.14-.69-1.18-.04,0-.14.01-.19.04-.34.14-.48.15-.83.16-.35,0-.79-.19-1.12.04-.27.2-.63.25-.9.45-.38.31-.87.32-1.25.59-.32.23-.75.57-1.15.57-.35,0-1.25.59-1.48.84-.28.24-.51.45-.6.83-.1.42-.53.76-.59,1.01-.07.29-.19.62-.45.78-.46.25-1.27,1.42-1.43,2.09-.02.08,0,.18-.02.26-.47.29-.79.34-1.33.21s-.73-.66-1.31-.8c-.25-.06-.4-.18-.47-.42-.03-.05-.04-.58-.03-.63.06-.25.78-1.05.99-1.18.2-.09.69-.32.79-.52.21-.35.07-.29.4-.39.09-.02.21-.13.24-.25.05-.21.07-.29.21-.3.51-.1.48-.73.88-.9.5-.23.37-.26.65-.69.3-.5,1.13-.66,1.35-1.23.12-.32.4-.57.52-.89.12-.32.6-.65.66-.9.02-.08-.04-.19-.13-.21-.25-.06-.48.15-.65.11-.04,0-.08-.02-.12-.07-.04,0-.12-.07-.16-.08-.33-.08-.79.17-1.17.08-.13-.03-.62-.19-.64-.28.19-.04.33-.1.49-.19.2-.09.62.01.91-.09.29-.11.57-.17.84-.2.32-.06.77-.44,1.06-.37.25.06.64-.07.84-.2.16-.1.33-.27.55-.27s.52.04.73.09c.42.1,1.3.66,1.18,1.17-.16.67-.83.91-1.14,1.45-.08.16-.41.26-.59.43-.17.18-.24.47-.49.59-.1.06-.31.19-.34.32.29.07,1.72-.74,3.01-1.5,1.06-.54,2.02-1.07,2.31-1,.46.11.69-.28,1.69-.04.54.13,1.2.55,1.47,1.06.13.21.19.49.32.69.16.26.36.53.29.82-.04.17-.34.67-.53.76-.35.18-.68.46-1.04.64-.26.16-.43.69-.67.95-.24.25-.62.38-.87.68-.53.54-.54,1.33-1.05,1.83-.4.39-.45.42-.51.67l-.11.46c-.12.5-.5.41-.6.87-.09.38.51.83.84.91,1,.24,3.09-1.3,3.55-1.19.03.05.02.09.01.14-.03.13-.11.28-.22.35Z"/>
      <path class="cls-1" d="M167.41,20.53c-.23.47-1.5.99-1.59,1.28-.07.25-.26.42-.48.58-.33.22-.5.17-.66.57-.13.28-.35.43-.56.69-.27.32-.46.81-.91.94-.4.15-.51.52-.83.7-.21.12-.63.31-.74.54-.52,1.01-.76.45-1.08,1.07-.11.24-.45.31-.62.58-.23.33-.56.37-.77.63-.21.25-.55.33-.76.58-.26.28-.48.57-.77.8-.28.19-.44.27-.62.58-.36.61-.94.31-1.36,1.26-.11.23-.67.43-.89.59-.16.09-1.23.98-1.31,1.09-.1.19-1.97,1.21-2.01,1.34-.13.28-.22.29-.52.39-.3.09-.43.41-.62.44-.67.16-.94.75-1.36.81-.37.03-.49.44-.84.42-.35-.02-.5.48-.87.51-.46.04-.94.75-1.39.76-.35-.02-.46.36-.8.44-.38.07-.65.39-1.02.42-.31,0-.57.1-.83.25s-.39.25-.69.2c-.38-.07-1.06.4-1.35.32-.25-.07-.56.06-.8.12-1.05.23-1.24-.05-1.98.04-.09.02-.14,0-.22-.02-.17-.05-.33-.23-.5-.28-.37-.11-.83.07-1.2-.04-.17-.05-.12-.21-.28-.26-.16-.05-.31,0-.48-.05-.04-.01-.12-.04-.15-.09-.29-.22-.66-.33-.84-.65-.13-.17-.23-.43-.44-.49-.41-.12-.82-.87-.78-1.31l.18-1.07s0-.18.02-.22c.06-.21.22-.29.39-.42.11-.06.14-.18.18-.31l.05-.17c.04-.12.06-.21.22-.29.23-.16.45-.63.67-.74.32-.17.64-.35.82-.65.18-.31.65-.53,1-.51.31,0,.39-.56.62-.58.19-.03.32-.17.52-.25.49-.13,1.09-.35,1.59-.38.37-.03.75.18,1.11.19.27,0,.73-.05.98.02.08.02.21.06.17.18-.01.04-.12.1-.17.13-.15.05-.25-.07-.64.04-.31.13-.74.09-1.02.28-.28.19-.43.41-.74.54-.31.13-.53.43-.84.56-.15.05-.18.17-.21.25l-.05.17s-.04.12-.09.15c-.16.09-.21.25-.25.38l-.06.21c-.08.29-.33.35-.38.52-.06.21.26.48.19.73-.01.04-.13.28-.16.4-.04.12.44.94.68,1.05.54.29.98.78,1.56.95.29.09,1.6.2,1.88.15.66-.12,1.66-.14,2.2-.47.27-.15.73-.05,1.01-.24.33-.22.45-.32.88-.41.49-.13.57-.41.85-.47.28-.05.48-.26.72-.32.78-.22.95-.8,1.44-.79.26.03.3-.27.59-.32.33-.04.65-.53.96-.66.36-.16,1.25-.75,1.52-1.03.13-.14.58-.28.79-.4.21-.12.33-.35.55-.51l.56-.37c.23-.16.65-.84.89-.9.3-.09,1.17-.78,1.34-1.04.17-.26.62-.27.77-.49s.41-.33.61-.54c.42-.37.77-.94,1.21-1.21.21-.12.26-.42.47-.53.17-.13.46-.36.57-.55.04-.12.14-.32.18-.44.01-.04-.03-.19-.06-.24-.12-.04-.33.22-.51.21-.14,0-.18,0-.23.02l-.18.17c-.26.28-.44.27-.79.4-.24.06-.4.15-.63.17-.19.03-.11.24-.42.19-.26-.03-1.25.57-1.64.68-.19.03-.38.07-.54.02-.08-.02-.17-.05-.19-.1-.15-.09-.28-.26-.45-.31-.25-.07-.58,0-.87-.08l-.87-.26c-.17-.05-.15-.27-.39-.34-.29-.09-.25-.21-.2-.37s.11-.37-.11-.53c-.14-.13.02-.35-.21-.51-.33-.23-.37-.42-.26-.79.17-.58.63-.62.93-1.03.21-.25.3-.4.61-.54.25-.1,1.02-.87,1.34-1.04.2-.08,1.66-.9,1.66-.9.23-.02.46-.18.63-.31.23-.16.46-.36.71-.42.34-.08.6-.23.88-.41.49-.3,1.6-1.32,2.17-1.29.34.06.56-.06.86-.19.31-.13,1.68-.22,2.09-.1.04.01.4.16.56.21.12.04.25.07.38.07.29.09.66.51.99.6.74.22,1.17-.64,1.67-.49.82.24,1.12.6,1.29,1.41-.1.33-.49.44-.63.76ZM163.35,20.59l-.29-.08c-.21-.06-.33-.1-.26-.34.07-.25-.25-.39-.37-.56-.16-.23-.36-.29-.61-.36-.29-.09-.83.07-1.14.07-.37.03-.71.28-1.05.36-.34.08-.65.53-.92.54-.46.04-.91.94-1.46,1.14-.25.1-.45.45-.72.46-.14,0-.81.61-.85.74-.08.29-.28.5-.51.66-.11.06-.12.1-.14.18-.05.17-.04.3-.09.47-.05.17-.17.26-.22.43-.18.62.55,1.33,1.09,1.49.33.1,1.45-.06,1.73-.25.28-.19.72-.01.93-.13.32-.17.65-.21.92-.4.44-.27,1.08-.31,1.34-.59.14-.18.37-.2.56-.37.18-.17.31-.45.52-.56.23-.16.34-.39.45-.63s1.38-1.65,1.45-1.86c.06-.21-.17-.32-.38-.38Z"/>
      <path class="cls-1" d="M194.45,38.16c-.46.01-1.2.66-1.68.72-.88.14-1.9.82-2.27.82-.65.04-2.41.08-2.94-.11-.28-.1-.7-.35-.83-.62-.22-.4-.46-1.26-.29-1.71.16-.44.67-.72.85-1.2.41-1.13,1.08-.71,1.52-1.41.13-.23,1.31-.71,1.83-1.39.62-.83,1.55-.99,1.92-2,.26-.73.33-1.02-.52-1.33-.28-.1-1.19-.11-1.43.03-.24.14-.59.11-.86.23-.55.26-1.26.46-1.85.56-.34.06-.77-.14-1.02.18-.17.21-.51.64-.69.76-.29.17-.47.15-.64.5-.25.55-.89,1.05-1.23,1.61-.2.29-.64.36-.79.67-.23.37-.34.56-.68.85-.32.25-.53.45-.78.77-.35.47-.72.47-1.25.28-.12-.04-.23-.13-.35-.17-.12-.04-.42-.11-.7-.21-.44-.16-.86-.4-.73-.77.07-.2.28-.4.4-.59.44-.84,1.84-1.3,2.05-1.86.15-.4.52-.68.92-.76.34-.06.71-.2.89-.55.2-.43,1.6-1.62,2.05-1.86.35-.19.57-.57.92-.76.29-.17.86-.47.97-.79l.13-.36c.09-.24.06-.53-.23-.63-.12-.04-.26-.05-.41-.01-.81.21-1.65.13-2.43.4-.47.15-2.53.91-3.07.9-.41-.01-.63.09-1,.23-.37.14-.59.24-.8.58-.3.44-.68,1.12-1.09,1.48-.22.24-.51.27-.73.51-.24.28-.4.59-.68.85l-1.29,1.27c-.35.33-.37.64-.94.57-.27,0-.53-.06-.81-.16-.32-.12-.49-.41-.82-.53-.08-.03-.18-.02-.26-.05-.57-.21-.39-1.06-.23-1.5.04-.12.09-.24.17-.35.3-.44.71-.57,1.2-.66.38-.04.64-.36.94-.57.29-.17.41-.49.67-.72.33-.29.88-.28,1.09-.47s.32-.39.56-.53c.36-.23.6-.51.85-.83.25-.32.56-.53.86-.74.18-.12.54-.35.61-.55.14-.13.31-.35.38-.55.04-.12-.02-.19-.1-.22-.32-.12-.64,0-.96-.12-.16-.06-.31-.16-.47-.22-.12-.04-.26-.05-.41-.01-.15.04-.69-.11-.89-.19-.08-.03-.23-.13-.18-.25.28-.26,1.46-.11,1.78,0,.24.09.5-.23.82-.11.28.1.5-.23.78-.13.73.26,1.06-.39,1.5-.23.24.09,1.29.61,1.34.85.08.4.37.5.21.94-.07.2-.2.43-.41.49-.21.06-1.44.8-1.5.97-.01.04,0,.14.04.15.81.29,2.37-.6,2.97-.61.33-.02.67-.08.96-.25.29-.17.86-.1,1.07-.3s1.49-.33,1.77-.22c.28.1.61-.05.9.05.28.1.49.41.77.51.28.1.5,1.01.42,1.25-.1.28-.98.93-1.24,1.01-.22.1-.41.49-.68.62-.15.04-.68.35-.72.47.07.07.23.13.31.16.27,0,.6-.01.85-.19.53-.45,1.24-.51,1.78-.86.25-.18.49-.46.82-.48.29-.03.44-.34.7-.29.57.07,1.19.39,1.75.36.33-.02.74-.28,1.03-.18s.55.25.58.53c.08.4,1.05.52.58,1.81-.25.69-1.28,1.37-1.9,1.69-.24.14-.48.56-.73.74-.43.3-1.07.94-1.33,1.39-.14.27-.54.49-.63.73-.12.32-.39.68-.62.96-.18.25-.29.54-.47.79-.01.04-.08.11-.08.11-.18.48.07.94.55,1.12.24.09.51.1.74,0,.39-.18.74-.14,1.12-.19s.85-.33,1.14-.36c.33-.02.32-.11.59-.24.11-.05.26-.09.38-.04.12.04.13.14.09.26-.07.2-.24.28-.47.29Z"/>
      <path class="cls-1" d="M207.94,43.2c-.37.14-.53.31-.76.31-.23,0-.36.1-.79.26s-.43.3-.87.36c-.48.05-.4.22-.95.2-.42.02-.63.08-.89.03-.42-.11-.74.14-1.06.01l-.4-.15c-.16-.06-.32-.12-.51-.1-.18-.02-.35-.04-.47-.09-.28-.11-.45-.26-.61-.46-.18-.25-.05-.48-.29-.71-.2-.21-.05-.85.06-1.13.13-.23.16-.31.21-.43.12-.32.09-.61-.03-.65-.04-.02-.1.01-.15.04-.35.19-.45.11-.9.31-.41.12-.8.3-1.24.36-.4.08-.8.3-1.18.2-.38-.1-.37.14-.81.06-.43-.07-1.14.22-1.54.06-.44-.17-.63-.51-.83-.86-.16-.43-.2-.44-.3-.8-.13-.28-.34-.68-.16-1.16.28-.63.4-.95.61-1.24.2-.29.88-.87,1.25-1,.36-.1.81-.43,1.03-.67.23-.24.51-.27.78-.35.3-.07.87-.23,1.2-.38.33-.15.58-.2.87-.36.33-.15.49-.09.91-.35.42-.26.6-.37,1.01-.49.62-.18.77-.08,1.26-.31.51-.27.76-.31,1.09-.46.32-.11.87-.36,1.35-.18.48.18.71-.05,1.03.07s.53.06.97.23c.48.18.5.51.64.75.32.12.47-.28.79-.39.75-.27.54-.21.81-.43.13-.09.24-.14.4-.08.12.05.23.13.41.25.15.1.18.25.55.48.27.15.4.29.38.46,0,.1.05.34-.02.54-.03.08-.04.12-.12.19-.16.17-.16.31-.44.43l-.5.23-.76.45c-.58.33-.66.4-.96.47s-.61.41-.88.63l-1.3.89c-.25.18-.39.31-.44.43l-.08.2c-.03.08-.08.2-.26.32-.24.14-.35.33-.43.53l-.11.28c-.04.12-.09.24-.2.29-.36.23-.39.68-.7,1.12-.08.11-.12.19-.16.31-.14.36-.11.79.02.93.16.2.18.39.44.67l.16.06c.32.12.91.16,1.17.07.56-.16.54.02.84-.15.36-.23.44-.2.83-.24.34-.05.41-.12.65-.26.18-.12.41-.12.57-.06.08.03.12.05.15.1.02.06.05.11.04.15-.05.12-.24.14-.4.22ZM205.65,35.86c-.3-.3-.2-.21-.39-.56-.19-.35-.39-.42-.67-.53-.16-.06-.29-.2-.45-.26-.12-.05-.3-.07-.5,0-.55.12-.69-.12-1.05.11-.36.23-.61.28-.94.29-.29.03-.82.34-1.14.35-.34.06-.62.18-.96.47-.34.29-.73.46-.82.7-.08.2-.56.52-.73.83-.16.31-.35.56-.51,1-.18.48-.27.72-.1,1.25.16.56,0,.37.35.78.07.07.17.16.25.19.28.11.6,0,.87,0,.37,0,.81-.06,1.07-.15.26-.08.7-.38.97-.37.27.01.88-.27,1.46-.69s.99-.68,1.33-.97c.32-.25.26-.68.95-1.07.22-.1.25-.18.28-.26.03-.08.06-.16.22-.33.21-.2.48-.42.54-.58.03-.08.04-.12-.02-.19Z"/>
      <path class="cls-1" d="M224.01,41.37c-.07.07-.08.11-.11.19-.04.12-.05.26-.11.42-.06.16-.16.31-.45.48-.33.15-.61.28-.84.42-.39.18-.72.33-.93.53-.33.29-.64.36-.84.29-.04-.01-.11-.08-.15-.1-.08-.03-.07-.07-.04-.15.04-.12.25-.32.36-.6.03-.08,0-.14.03-.22.15-.4.56-.66.65-.91.03-.08,0-.14-.02-.19-.2-.44-.51-.74-1.11-.96-.57-.21-.99-.18-1.56.02l-1.02.41c-.33.15-.61.28-.86.46-.25.18-.51.27-.77.36-.26.09-.59.1-.99.19-.74.14-1.27.45-1.75.64-.47.15-.63.23-1.21.93-.31.34-.57.8-.81,1.21-.21.33-.47.65-.77.86-.71.43-.33.89-1.11,1.15-.78.26-1.15.13-1.63-.05s-.15-.47-.63-.64c-.2-.07-.42-.11-.54-.15-.16-.06-.25-.18-.17-.52.22-.61.5-.73.62-1.06.13-.36.56-.9.92-.9.33-.02.17-.35.67-.58.61-.28,1.19-.25,1.49-.83.26-.59.6-.51,1.1-.88.54-.35.3-.58.94-1.07.7-.52,1.03-.68,1.34-1.16.2-.29.35-.47.44-.71.06-.16-.05-.25-.17-.29-.34-.08-.54-.02-.87-.13-.4-.15-.62-.05-.84-.08-.18-.02-.33.02-.41-.01-.04-.01-.08-.03-.05-.11.01-.04.5-.5.8-.44.26.05.79-.03,1.05.02.61.09,1.46-.11,1.68-.21.57-.3.98-.42,1.54-.21.52.19.86.04,1.42.25.32.12.34.31.26.55-.06.16-.17.35-.33.52-.34.43-.24.78-.73,1.11-.51.27-.84,1.16-1.48,1.43-.37.14-.72.33-.76.45-.02.04.01.1.13.14.69.12,1.08-.2,1.67-.44l2.13-.82c.57-.3.96-.75,1.45-.71.53.06.75-.69,1.13-.59l.16.06c.16.06.39.19.58.3.23.13.46.26.7.35l.24.09c.36.13.43.2.63.64.1.22.16.43.14.6,0,.14-.03.22-.08.34-.04.12-.09.24-.16.31Z"/>
      <path class="cls-1" d="M236.11,45.51c-.07.07-.08.11-.11.19-.04.12-.04.26-.1.42-.06.16-.15.31-.44.49-.33.16-.6.29-.83.44-.38.19-.71.35-.92.55-.33.3-.63.38-.83.31-.04-.01-.11-.08-.15-.1-.08-.03-.07-.07-.04-.15.04-.12.25-.32.34-.61.03-.08,0-.14.03-.22.14-.41.55-.67.63-.92.03-.08,0-.14-.03-.19-.21-.44-.52-.73-1.13-.94-.57-.2-.99-.16-1.56.05l-1.01.43c-.33.16-.6.29-.85.48-.25.19-.5.28-.76.37-.26.09-.58.12-.98.21-.74.16-1.25.48-1.73.68-.46.16-.63.24-1.19.95-.3.35-.55.81-.79,1.23-.21.34-.46.66-.76.88-.7.44-.31.9-1.08,1.17s-1.14.15-1.63-.01c-.49-.17-.16-.46-.65-.63-.2-.07-.42-.1-.54-.14-.16-.06-.26-.18-.19-.52.21-.61.48-.74.59-1.07.12-.37.54-.91.91-.92.33-.02.17-.35.66-.59.6-.29,1.19-.27,1.48-.86.25-.6.59-.52,1.08-.9.53-.36.29-.58.92-1.09.68-.54,1.01-.7,1.32-1.18.19-.3.34-.47.43-.72.06-.16-.05-.25-.17-.29-.34-.07-.54,0-.87-.12-.41-.14-.62-.03-.84-.06-.18-.02-.33.02-.41,0-.04-.01-.08-.03-.05-.11.01-.04.49-.51.79-.46.26.04.79-.05,1.05,0,.61.07,1.46-.14,1.67-.24.56-.31.97-.44,1.54-.24.53.18.86.02,1.43.22.33.11.35.3.27.55-.06.16-.17.35-.32.53-.33.43-.22.79-.7,1.12-.51.28-.81,1.18-1.45,1.46-.37.15-.71.35-.75.47-.01.04.01.1.13.14.69.1,1.08-.22,1.66-.47l2.12-.87c.56-.31.95-.77,1.43-.73.53.05.74-.7,1.12-.62l.16.06c.16.06.39.18.58.29.23.12.46.25.7.33l.24.08c.37.13.43.19.65.63.11.22.17.42.16.6,0,.14-.03.22-.07.34-.04.12-.08.24-.15.31Z"/>
      <path class="cls-1" d="M241.33,54.87c-.23.02-.46.17-.81.29-.39.1-.71.41-.92.48-.24.06-.65.2-1.03.27-.43.09-.81.15-1.03.13-.38-.07-.74-.09-1.33-.05-.56.05-1.01-.09-1.5-.11-.09.02-.22-.02-.34-.06-.29-.09-.56-.22-.81-.3-.12-.04-.25-.08-.38-.07-.14,0-.27,0-.4-.03-.29-.09-.48-.33-.6-.68-.11-.21-.2-.51-.21-.78-.02-.23-.04-.46.03-.67.03-.08.05-.16.12-.23.17-.26.28-.45.46-.62.2-.21.47-.35.81-.42.28-.05.55-.19.79-.38.28-.18.51-.47.6-.62.24-.33.55-.46,1.13-.73.31-.13.62-.39.88-.67s.55-.6.7-.82l.97-.96c.32-.31.21-.66.62-.84.23-.15.39-.24.43-.36.03-.08-.04-.15-.15-.23-.19-.1-.23-.12-.32-.14-.04-.01-.16-.05-.34-.06-.45,0-.31.13-.71.1-.19.03-.31,0-.44-.05s-.25-.08-.42-.09c-.23.02-.54.01-.71-.04-.08-.03-.11-.08-.1-.12.01-.04.03-.08.13-.14.33-.21.66-.24.96-.2.34.06.8.02,1.15-.09s.58-.27.93-.25c.31,0,.35-.12.87-.04.57.04.65-.2,1-.32.15-.04.87.09,1.2.19.12.04.26.04.34.06.21.06.36.16.4.3.14.41.31.73.2,1.1-.06.21,0,.31-.03.4-.01.04-.08.11-.2.21l-.74.49c-.19.17-.36.29-.55.32-.22.11-.44.27-.68.46-.23.15-.43.36-.64.48-.22.11-.44.27-.7.37-.38.2-.75.4-.9.58l-.52.38c-.23.15-.47.35-.63.57l-.61.8c-.17.26-.37.47-.49.57-.31.26-.49.7-.81.87-.21.11-.42.32-.48.53-.04.12,0,.27.17.32.38.21.31.59.72.86.23.12.44.18.69.26l.25.08c.12.04.21.06.4.03.37-.02.6.1.98.03.43-.09.82-.33,1.15-.36.19-.03.36-.16.66-.24l.65-.2c.2-.07.49-.12.65-.07.08.03.07.07.04.15-.05.16-.29.36-.58.41ZM251.31,38.97q-.32.17-.64.48c-.29.36-.35.12-.85.28-.5.16-.8.25-1.16.4-.36.16-.91.3-1.27.33-.33.03-.33.21-.74.22-.37.02-.58.27-.78.21-.04-.01-.08-.03-.11-.08-.07-.07-.08-.16-.06-.24.05-.16.33-.35.57-.54.37-.33.42-.32.65-.65.24-.33.33-.62.7-.82.12-.1.2-.21.22-.29l.06-.21c.04-.12.12-.23.31-.26.24-.06.32-.17.36-.29l.06-.21c.03-.08.05-.16.17-.26.29-.22.61-.22.94-.11l.25.08c.38.21.8.34,1.13.58.3.18.15.23.51.38.15.09.18.28.12.49-.06.21-.24.47-.44.54Z"/>
      <path class="cls-1" d="M255.12,51.79c-.34.09-.48.14-.8.5-.36.35-.66.62-1.02.66-.32.05-.48.14-.77.37-.23.2-.64.05-1.04.21-.43.11-.68.4-1.15.31-.47-.08-.81-.13-1.15-.04l-.66.13-.83-.05c-.18,0-.57-.02-.78-.08-.08-.02-.17-.04-.14-.13.01-.04.52-.26.79-.28.32-.05.67,0,.76-.02.27-.02,1-.09,1.34-.35.39-.3.84-.31,1.21-.52.32-.18.5-.53.77-.73.29-.24.44-.33.65-.58.05-.03.08-.11.09-.16.04-.17-.1-.29-.26-.52-.13-.17-.4-.33-.69-.41-.17-.04-.39-.06-.53,0-.43.11-.64.05-1.13.23-.48.14-.82.4-1.17.53-.32.18-.51.58-.9.69-.35.13-.45.5-.73.74-.23.2-.38.57-.69.75-.29.23-.52.44-.77.86-.14.19-.17.31-.22.48-.06.21-.07.43-.11.73-.09.51-.07,1.09.08,1.36.18.32.58.65.77.96.16.22.88.55,1.42.69.21.06.38.06.48.04.29-.1,1.31.26,1.58.25.31,0,.32-.05.88-.12.54-.03.68-.22,1-.22.27-.02.54-.17.84-.31.35-.13.49-.18.7-.3.2-.08.27-.02.47-.1.05-.03.14,0,.18,0,.08.02.14.13.12.21-.02.08-.08.11-.18.17l-.75.29c-.26.15-.48.45-.71.48-.27.02-.48.14-.7.3-.11.06-.72.34-1.05.43-.35.13-.62.15-.96.28-.32.18-.95.23-1.2.17-.29-.08-1.03-.14-1.38-.15-.26-.03-.64.05-.93-.03-.12-.03-.24-.11-.31-.17-.23-.15-.96-.39-1.46-.53l-.42-.11c-.12-.03-.26-.03-.38-.06-.21-.06-.45-.16-.79-.39-.56-.42-.67-1.16-.93-1.36-.17-.18-.28-.79-.19-1.12l.58-1.31c.12-.28.82-.72,1.13-.9.35-.13.42-.07.64-.41.22-.34.43-.77.9-.87.47-.1.64-.54.89-.65.28-.06.61-.46.94-.51.28-.06.32-.05.58-.16.38-.25.67-.18.84-.49.16-.27.55-.39.87-.57.37-.21.99-.71,1.34-.84.4-.16.72-.34.97-.45.2-.08.69-.26.98-.18.33.09.67,0,1.17.13.5.13,1.13-.05,1.43-.02.33.09.59.29.89.82.21.37.06.77.16,1.24,0,.14,0,.35-.05.52-.08.29-.24.56-.48.63Z"/>
      <path class="cls-1" d="M279.85,41.99c-.38.36-.24.78-.74,1.3-.5.51-1.45,1.11-1.99,1.84l-.72.95c-.24.35-.56.63-.83.84-.57.41-1.02.94-1.26,1.24-.24.3-.62.89-1.12,1.22-.46.3-.57.89-.95,1.26-.39.41-.94.95-1.39,1.48-.46.52-1.01,1.11-1.43,1.47-.39.41-.89.96-1.15,1.35-.29.38-.65,1.05-1.1,1.54-.48.43-.97,1.12-1.07,1.41-.09.24-.4.71-.77.99-.32.29-.34.81-.62,1.11-.21.18-.44.44-.51.78-.03.17-.03.39.06.58.25.53.33.77.84.87.56.07.55.11,1.05,0,.28-.08.67-.08,1.22-.19.19-.05.64-.35,1.08-.57.63-.31.82-.36.97-.46.1-.07.24-.08.32-.07.13.03.19.13.16.29-.1.29-.53.25-.79.46-.26.21-1.21.81-1.68.94-.28.08-.52.2-1.05.41-.99.33-1.21.33-1.53.44-.23.04-.56.15-1.16.08q-.3-.06-.66-.22c-.36-.16-.61-.25-.84-.39-.43-.26-.68-.53-.72-.8,0-.4.05-.47-.3-.89-.11-.11-.12-.29-.08-.46.08-.38.38-.8.63-.97.35-.24.56-.59.59-.76.02-.08.02-.13-.02-.14-.04,0-.09.03-.14.06l-3.2,1.99c-.55.33-1.13.61-1.48.62-.4.05-.74.2-1.19.25-.18,0-.4,0-.61-.03-.17-.03-.33-.11-.54-.15-.62-.17-.94-.36-1.15-.62-.2-.3-.22-.66-.31-1.07-.03-.27-.02-.57.03-.83.1-.51.35-.89.62-1.1.26-.21.49-.69.93-1.17.34-.37.8-.72,1.28-.93.52-.2.83-.45,1.23-.68.45-.26.97-.46,1.31-.84.66-.66,1.03-.98,1.38-1.22.31-.25.96-.64,1.44-.85.34-.15.6-.36.93-.47.33-.11.64-.14,1.08-.14.9.09.85-.09,1.64-.11.4,0,.67-.04.92,0,.25.05.45.18.55.33.12.29.39.47.64.52.04,0,.13-.02.18,0,.24-.08.66-.66.91-1.27.24-.57.34-.59.73-.82.35-.24.43-1.05.83-1.32.46-.3.62-1.32.96-1.52.4-.23.56-1.07.8-1.16.25-.13.75-.68,1.12-1.22l.63-.97c.25-.35.48-.65.63-.75.21-.18.51-.38.55-.55.02-.08-.02-.13-.09-.19-.08-.06-.16-.08-.29-.1-.25-.05-.61-.03-.99.11q-.09.03-.13.02c-.08-.02-.08-.06-.46-.13l-.34-.07c-.43-.04-.42-.08-.96-.02-.09.03-.9-.09-.9-.09-.12-.07-.19-.13-.18-.21.03-.13.35-.24.7-.21.7,0,.83,0,1.51-.09.37-.1,1.37-.3,1.42-.29.6.08.78-.19,1.38-.12.64.08,1.15-.73,1.47-.76.22,0,1.05,0,1.6.1.21.04.41.13.49.19.28.14.78.46.72.8-.02.08-.07.12-.13.19ZM265.55,54.53l-.17-.03c-.25-.05-.54-.15-.69-.49-.2-.52-.49-.4-.76-.59-.08-.06-.2-.08-.37-.12-.3-.06-.73-.06-1.1,0-.55.11-.88.48-1.35.61-.23.04-.58.28-1.04.58-.41.27-.82.58-1.26.84-.29.16-.57.41-.83.67-.28.3-.51.6-.57.89-.1.51-.59.98-.65,1.27-.07.34-.25,1.27.17,1.35.46.09.63.56,1.05.65.46.09.57-.02,1.03-.1.51-.12.69-.39,1.21-.59.52-.2.99-.77,1.45-.9.46-.13.83-.67,1.2-.95.36-.28.72-.73,1.06-.71.35-.02.48-.65.99-.99.3-.2.82-.8.88-1.14.03-.13,0-.22-.25-.27Z"/>
      <path class="cls-1" d="M275.23,66.85c-.18.25-.79.44-1.06.69-.22.21-.8.57-1.14.56-.04,0-.33-.27-.55-.28-.47-.02-.67-.5-.65-.84,0-.09,0-.17.05-.26.14-.21.15-.42.15-.6v-.3c.02-.09.02-.17.07-.26.14-.3.04-.95.26-1.15.27-.25.03-.6.46-.58.56.07.72.29.98.3h.21c.26.02.51.16.63.34.2.27.4.62.44.88.03.3.37.45.49.75.04.09.04.17.03.22,0,.21-.23.38-.37.54ZM292.4,40.01c-.11.51-.4,1.32-.7,1.39-.35.03-.37.67-.65,1.05-.27.33-.74.31-.89.65-.19.34-.08.94-.39,1.02-.35.11-.75.44-.94.78-.14.38-.42.67-.64.83-.22.12-.54.67-.86.91-.31.25-.46.63-.77.87-.35.24-.77.96-1.04,1.25-.27.29-.59.71-.82,1.04-.19.38-.59.66-.69,1-.14.34-.32.55-.59.79s-.55.84-.82,1.13-.37.59-.64.83-.33.68-.55.75c-.22.12-.54.54-.64.88-.15.38-.42.89-.61,1.14-.14.25-.32.5-.42.84l-.38.97c-.05.26-.24.55-.38.8-.18.25-.32.46-.45.58-.18.29-.38.97-.57,1.18-.14.17-.29.81-.55.79s-.38-.19-.37-.45c0-.09,0-.17.05-.26.02-.43-.54-.5-.53-.71.01-.3-.45-.62-.43-.96.02-.39.29-.76.6-1.05.32-.33.54-.62.6-.92.06-.3.32-.5.59-.75s.61-1.09.92-1.3c.31-.16.91-1.21,1.05-1.42.18-.21.69-1.05.87-1.3s.55-.71.65-1.05c.15-.38.51-.97.7-1.26.14-.3.39-1.06.65-1.14.26-.03.37-.59.6-.96.23-.42.19-.51.46-.84.41-.41.47-1.06.83-1.43.22-.21.46-.63.69-1.05.19-.42.42-.8.55-.92.27-.25.55-.88.61-1.31.06-.38.51-.88.61-1.31.1-.3.37-.54.37-.72,0-.04-.04-.09-.12-.13-.12-.09-.34-.14-.6-.15s-.56.02-.74.14c-.22.16-.4.24-.7.23-.09,0-.26-.01-.38-.06-.51-.11-.64-.2-.98-.21h-.26c-.39-.03-.51-.12-.51-.2s.09-.13.26-.12c.34.01.74-.27,1.05-.43.31-.12,1-.13,1.25-.12s.83-.35,1.18-.42c.39-.11,1.21-.21,1.48-.46s.32-.37,1.26-.33c.9.04,1.84.21,2.13.65.24.35.62.63.6,1.06,0,.04-.05.13-.05.17Z"/>
    </g>
  </g>
</svg>